<?xml version="1.0" standalone="no"?>
<!DOCTYPE svg PUBLIC "-//W3C//DTD SVG 20010904//EN"
 "http://www.w3.org/TR/2001/REC-SVG-20010904/DTD/svg10.dtd">
<svg version="1.0" xmlns="http://www.w3.org/2000/svg"
 width="200.000000pt" height="200.000000pt" viewBox="0 0 200.000000 200.000000"
 preserveAspectRatio="xMidYMid meet">
<metadata>
Created by potrace 1.11, written by Peter Selinger 2001-2013
</metadata>
<g transform="translate(0.000000,200.000000) scale(0.100000,-0.100000)"
fill="#000000" stroke="none">
<path d="M287 1891 c-59 -27 -113 -53 -119 -59 -13 -13 -17 -129 -6 -154 5 -9
29 -38 54 -64 38 -38 55 -48 90 -52 l44 -5 -35 -38 c-19 -22 -35 -43 -35 -48
0 -17 44 -59 85 -82 48 -26 141 -36 186 -20 39 13 42 11 41 -30 -1 -27 11 -44
63 -98 60 -63 64 -69 62 -111 l-2 -44 -120 -30 c-112 -29 -120 -33 -120 -55 0
-21 10 -29 60 -49 33 -13 62 -25 64 -27 2 -2 -14 -27 -35 -56 -47 -65 -40 -83
36 -87 l52 -3 -7 -90 c-9 -123 -11 -130 -43 -159 -69 -63 -112 -90 -141 -90
-17 0 -42 -10 -58 -24 l-28 -24 -26 22 c-18 16 -41 23 -74 24 -63 3 -85 -5
-85 -29 0 -25 89 -321 101 -335 13 -17 1392 -17 1413 0 14 11 106 300 106 335
0 24 -20 31 -87 30 -41 -1 -57 -7 -74 -25 l-22 -23 -29 24 c-18 15 -43 25 -61
25 -21 1 -45 12 -71 34 l-38 33 47 12 c146 37 242 149 247 289 1 34 7 51 21
61 36 25 46 68 31 125 -8 28 -17 78 -20 111 -8 80 -20 92 -68 70 -53 -26 -123
-91 -137 -129 -10 -27 -15 -32 -28 -24 -9 5 -65 22 -126 37 l-110 27 -3 42
c-3 40 1 47 55 103 71 74 75 82 69 120 -4 26 -2 29 12 24 42 -17 131 -17 181
0 51 16 121 71 121 94 0 6 -18 31 -40 54 l-39 43 43 -3 c41 -3 46 0 100 53 31
31 56 59 57 62 0 4 2 38 3 75 1 50 -2 71 -14 81 -15 13 -229 106 -242 106 -4
0 -12 -8 -17 -19 -8 -14 -4 -34 14 -80 l24 -61 -124 0 c-117 0 -125 1 -139 22
-21 29 -20 35 3 43 23 7 32 27 21 44 -8 14 -68 27 -164 37 -34 3 -64 8 -68 10
-4 3 -36 -3 -72 -12 -60 -15 -71 -15 -128 -1 -58 15 -72 14 -181 -2 -71 -10
-122 -23 -127 -31 -11 -18 -2 -38 21 -45 23 -8 23 -14 1 -43 -17 -22 -23 -23
-139 -20 l-121 3 24 59 c18 44 21 63 13 77 -5 10 -15 19 -22 18 -7 0 -61 -22
-120 -48z m773 -34 c41 11 79 13 123 9 59 -7 64 -9 77 -39 7 -18 15 -35 17
-39 3 -4 -15 -8 -39 -10 -53 -4 -62 -31 -23 -68 26 -24 33 -54 15 -65 -5 -3
-26 -2 -45 4 -36 10 -65 -4 -65 -32 -1 -28 -17 -39 -39 -28 -18 10 -25 8 -46
-15 -14 -15 -25 -31 -25 -35 0 -19 -16 -8 -34 22 -16 27 -22 31 -52 26 -30 -5
-34 -3 -44 28 -13 39 -31 49 -64 33 -54 -24 -76 20 -31 62 39 37 30 64 -22 68
l-41 3 16 38 c15 36 20 39 72 47 42 7 71 5 122 -7 61 -15 73 -15 128 -2z
m-720 -26 c0 -5 -7 -25 -15 -44 -8 -20 -12 -43 -9 -51 7 -17 25 -18 269 -16
l120 1 -47 -48 -48 -49 -159 1 -158 1 -37 37 c-31 32 -36 44 -36 83 0 45 0 45
53 69 58 27 67 29 67 16z m1385 -15 l55 -25 0 -46 c0 -40 -5 -51 -38 -83 l-38
-37 -157 0 -157 1 -48 47 -47 48 65 -1 c36 -1 122 -1 191 -1 143 1 150 5 124
68 -15 36 -19 53 -10 53 2 0 29 -11 60 -24z m-381 -357 l2 -124 -55 -57 -54
-58 -236 0 -237 0 -53 54 -54 55 0 126 c0 118 1 127 22 148 16 15 25 18 28 10
2 -7 12 -22 21 -34 15 -17 21 -19 45 -10 44 17 55 13 62 -18 9 -43 29 -57 61
-42 14 6 26 11 28 11 2 0 15 -18 30 -40 16 -24 34 -40 46 -40 12 0 30 16 46
40 15 22 28 40 30 40 2 0 14 -5 28 -11 32 -15 52 -1 61 42 7 31 19 35 59 19
35 -13 54 -4 61 32 l7 30 25 -25 c24 -23 25 -31 27 -148z m-840 79 c-56 -44
-58 -47 -39 -68 24 -26 26 -26 75 15 49 41 58 43 54 13 -1 -13 -3 -29 -3 -35
-1 -16 -65 -43 -100 -43 -36 0 -93 17 -116 34 -20 14 -20 14 0 36 26 29 103
69 134 70 23 0 23 0 -5 -22z m1054 -2 c26 -13 56 -34 67 -46 20 -22 20 -22 0
-36 -45 -33 -116 -41 -175 -20 -29 11 -36 19 -41 49 -3 21 -2 37 2 37 4 0 26
-16 49 -35 23 -19 45 -35 49 -35 10 0 45 39 40 44 -2 2 -21 18 -43 35 -33 27
-36 31 -17 31 12 0 43 -11 69 -24z m-693 -396 c-26 -29 -26 -59 0 -86 30 -30
58 -31 85 -2 24 26 26 61 5 78 -26 22 -17 25 60 27 67 1 97 -8 63 -19 -20 -7
-15 -76 8 -93 36 -29 103 1 104 46 0 9 -9 28 -20 42 l-20 25 32 -2 33 -2 3
-72 c5 -112 4 -112 -218 -112 -220 0 -220 0 -220 113 l0 72 50 1 c48 1 50 0
35 -16z m826 -52 c1 -19 6 -43 20 -99 14 -54 5 -75 -36 -79 -40 -4 -51 0 -68
29 -22 37 -9 82 35 128 34 35 48 41 49 21z m-957 -108 c29 -66 53 -73 259 -75
212 -1 242 7 273 74 11 22 21 41 24 41 3 0 28 -6 55 -14 l50 -13 -38 -16 c-51
-22 -55 -39 -17 -87 20 -26 27 -41 18 -42 -7 0 -17 -2 -23 -3 -5 -2 -17 -3
-25 -4 -9 0 -33 -24 -54 -51 l-38 -50 -31 42 c-56 79 -70 78 -131 -17 -27 -41
-52 -75 -56 -75 -4 0 -29 34 -56 75 -59 92 -74 95 -125 25 l-37 -50 -28 37
c-48 64 -60 72 -93 67 -17 -3 -31 -3 -31 0 0 3 14 25 31 50 35 50 33 61 -20
84 l-36 15 45 13 c65 18 65 18 84 -26z m836 -98 c32 -34 23 -79 -27 -131 -19
-19 -99 -41 -150 -41 -42 0 -43 0 -43 34 0 35 0 35 51 38 74 4 81 21 34 87
-21 28 -36 53 -34 55 2 2 31 15 64 28 l60 25 13 -37 c7 -20 21 -46 32 -58z
m81 -119 c-16 -63 -51 -115 -96 -143 -38 -24 -124 -50 -166 -50 -22 0 -25 4
-27 40 l-3 40 55 0 c101 0 182 44 218 119 13 27 25 47 27 45 2 -2 -2 -25 -8
-51z m-727 -81 c49 -76 70 -97 86 -87 6 3 33 40 60 81 28 41 54 74 58 74 4 -1
22 -21 40 -45 39 -53 62 -57 92 -14 12 16 24 29 26 27 2 -2 6 -33 9 -68 3 -36
7 -85 10 -110 2 -25 6 -79 10 -120 3 -41 8 -96 11 -122 l5 -48 -145 0 -145 0
14 48 c72 236 97 344 84 353 -30 19 -48 10 -58 -28 -45 -168 -76 -273 -81
-273 -3 0 -25 70 -49 155 -45 158 -52 170 -90 146 -15 -9 -15 -9 78 -333 l20
-68 -145 0 -145 0 6 57 c3 32 7 81 10 108 11 129 18 212 20 235 2 14 4 36 4
50 l2 25 27 -33 c15 -18 35 -32 44 -32 10 0 32 20 50 45 18 24 36 44 40 45 4
0 27 -31 52 -68z m-297 -229 c-4 -7 -8 -47 -23 -233 -1 -19 -3 -49 -3 -66 -1
-28 -4 -30 -33 -29 l-33 2 -3 129 -3 129 43 37 c39 35 66 49 55 31z m800 -29
l44 -36 -3 -131 c-3 -127 -4 -130 -25 -132 -42 -3 -41 -5 -59 230 -3 44 -7 86
-9 93 -7 20 5 14 52 -24z m-1055 -114 c3 0 26 16 50 36 l43 37 3 -67 c2 -37 2
-94 0 -128 l-3 -61 -57 -2 c-31 -1 -61 1 -66 4 -5 3 -25 59 -44 123 -30 102
-33 118 -19 121 9 2 32 -11 51 -30 20 -18 39 -33 42 -33z m1328 -63 l-36 -122
-65 0 -64 0 -3 123 c-3 136 1 143 54 91 35 -34 49 -32 92 14 14 15 31 23 41
20 16 -4 15 -14 -19 -126z m-982 -92 c3 -28 0 -31 -28 -30 -21 0 -30 5 -30 17
0 32 12 49 34 46 15 -2 22 -11 24 -33z m125 28 c2 -5 1 -19 -2 -33 -5 -19 -13
-25 -33 -26 -24 0 -28 4 -28 26 0 15 3 30 7 33 9 9 51 9 56 0z m125 -25 c-3
-35 -29 -46 -52 -22 -23 23 -8 54 26 54 27 0 29 -3 26 -32z m122 -3 c0 -31 -3
-34 -22 -31 -13 3 -26 5 -30 5 -10 1 -10 45 -1 54 3 4 17 7 30 7 20 0 23 -5
23 -35z m128 5 c1 -16 -1 -30 -5 -31 -5 0 -16 -2 -25 -4 -21 -4 -37 21 -31 46
4 13 14 19 32 19 23 0 27 -5 29 -30z m117 -5 c0 -29 -3 -31 -45 -26 -11 1 -14
44 -3 55 4 4 16 6 28 4 15 -2 20 -10 20 -33z"/>
<path d="M740 1420 c-42 -42 -7 -119 48 -105 37 9 55 28 55 60 0 53 -66 82
-103 45z"/>
<path d="M1181 1423 c-31 -25 -31 -71 -1 -95 40 -33 100 -5 100 47 0 51 -60
80 -99 48z"/>
</g>
</svg>
